<svg width="120" height="40" viewBox="0 0 120 40" fill="none" xmlns="http://www.w3.org/2000/svg">
<rect x="5" y="5" width="110" height="30" rx="15" fill="#9DC130"/>
<path d="M61.2136 20.692C61.5176 20.74 61.7936 20.864 62.0416 21.064C62.2976 21.264 62.4976 21.512 62.6416 21.808C62.7936 22.104 62.8696 22.42 62.8696 22.756C62.8696 23.18 62.7616 23.564 62.5456 23.908C62.3296 24.244 62.0136 24.512 61.5976 24.712C61.1896 24.904 60.7056 25 60.1456 25H57.0256V16.636H60.0256C60.5936 16.636 61.0776 16.732 61.4776 16.924C61.8776 17.108 62.1776 17.36 62.3776 17.68C62.5776 18 62.6776 18.36 62.6776 18.76C62.6776 19.256 62.5416 19.668 62.2696 19.996C62.0056 20.316 61.6536 20.548 61.2136 20.692ZM58.1176 20.248H59.9536C60.4656 20.248 60.8616 20.128 61.1416 19.888C61.4216 19.648 61.5616 19.316 61.5616 18.892C61.5616 18.468 61.4216 18.136 61.1416 17.896C60.8616 17.656 60.4576 17.536 59.9296 17.536H58.1176V20.248ZM60.0496 24.1C60.5936 24.1 61.0176 23.972 61.3216 23.716C61.6256 23.46 61.7776 23.104 61.7776 22.648C61.7776 22.184 61.6176 21.82 61.2976 21.556C60.9776 21.284 60.5496 21.148 60.0136 21.148H58.1176V24.1H60.0496ZM65.4529 16.636V21.928C65.4529 22.672 65.6329 23.224 65.9929 23.584C66.3609 23.944 66.8689 24.124 67.5169 24.124C68.1569 24.124 68.6569 23.944 69.0169 23.584C69.3849 23.224 69.5689 22.672 69.5689 21.928V16.636H70.6609V21.916C70.6609 22.612 70.5209 23.2 70.2409 23.68C69.9609 24.152 69.5809 24.504 69.1009 24.736C68.6289 24.968 68.0969 25.084 67.5049 25.084C66.9129 25.084 66.3769 24.968 65.8969 24.736C65.4249 24.504 65.0489 24.152 64.7689 23.68C64.4969 23.2 64.3609 22.612 64.3609 21.916V16.636H65.4529ZM78.8186 19.06C78.5866 18.572 78.2506 18.196 77.8106 17.932C77.3706 17.66 76.8586 17.524 76.2746 17.524C75.6906 17.524 75.1626 17.66 74.6906 17.932C74.2266 18.196 73.8586 18.58 73.5866 19.084C73.3226 19.58 73.1906 20.156 73.1906 20.812C73.1906 21.468 73.3226 22.044 73.5866 22.54C73.8586 23.036 74.2266 23.42 74.6906 23.692C75.1626 23.956 75.6906 24.088 76.2746 24.088C77.0906 24.088 77.7626 23.844 78.2906 23.356C78.8186 22.868 79.1266 22.208 79.2146 21.376H75.8786V20.488H80.3786V21.328C80.3146 22.016 80.0986 22.648 79.7306 23.224C79.3626 23.792 78.8786 24.244 78.2786 24.58C77.6786 24.908 77.0106 25.072 76.2746 25.072C75.4986 25.072 74.7906 24.892 74.1506 24.532C73.5106 24.164 73.0026 23.656 72.6266 23.008C72.2586 22.36 72.0746 21.628 72.0746 20.812C72.0746 19.996 72.2586 19.264 72.6266 18.616C73.0026 17.96 73.5106 17.452 74.1506 17.092C74.7906 16.724 75.4986 16.54 76.2746 16.54C77.1626 16.54 77.9466 16.76 78.6266 17.2C79.3146 17.64 79.8146 18.26 80.1266 19.06H78.8186Z" fill="white"/>
<path fill-rule="evenodd" clip-rule="evenodd" d="M28.3547 12.3209C28.5923 11.9817 29.0599 11.8992 29.3992 12.1368C29.7384 12.3743 29.8209 12.8419 29.5833 13.1812L28.3678 14.9171C29.1573 15.1693 29.6952 15.4414 29.6952 15.4414C29.6952 15.4414 28.3805 17.7029 26.1506 17.7029C23.9206 17.7029 22.3361 15.5951 22.3361 15.5951C22.3361 15.5951 22.8979 15.2365 23.7308 14.929L22.4073 13.3518C22.1411 13.0345 22.1825 12.5615 22.4998 12.2953C22.817 12.029 23.29 12.0704 23.5563 12.3877L25.2491 14.4052C25.2828 14.4453 25.3115 14.4878 25.3353 14.5321C25.5344 14.5089 25.7374 14.4959 25.9423 14.4959C26.2296 14.4959 26.5167 14.5179 26.7968 14.5552C26.8109 14.529 26.8266 14.5033 26.8441 14.4783L28.3547 12.3209ZM22.7956 17.8099C22.2005 17.3849 21.3001 16.2757 21.3001 16.2757C21.3001 16.2757 19 18.0983 19 21.9631C19 25.8278 22.9764 28.1538 22.9764 28.1538C22.9764 28.1538 24.8763 26.2352 25.3427 23.803C25.8091 21.3708 24.6528 18.6701 24.6528 18.6701C24.6528 18.6701 23.3907 18.2349 22.7956 17.8099ZM29.2044 17.8099C29.7995 17.3849 30.6999 16.2757 30.6999 16.2757C30.6999 16.2757 33 18.0983 33 21.9631C33 25.8278 29.0236 28.1538 29.0236 28.1538C29.0236 28.1538 27.1237 26.2352 26.6573 23.803C26.1909 21.3708 27.3472 18.6701 27.3472 18.6701C27.3472 18.6701 28.6093 18.2349 29.2044 17.8099Z" fill="white"/>
</svg>
