<svg width="120" height="40" viewBox="0 0 120 40" fill="none" xmlns="http://www.w3.org/2000/svg">
<rect x="5" y="5" width="110" height="30" rx="15" fill="#5F606D"/>
<path d="M56.5007 16.636C57.4127 16.636 58.2007 16.808 58.8647 17.152C59.5367 17.488 60.0487 17.972 60.4007 18.604C60.7607 19.236 60.9407 19.98 60.9407 20.836C60.9407 21.692 60.7607 22.436 60.4007 23.068C60.0487 23.692 59.5367 24.172 58.8647 24.508C58.2007 24.836 57.4127 25 56.5007 25H53.8967V16.636H56.5007ZM56.5007 24.1C57.5807 24.1 58.4047 23.816 58.9727 23.248C59.5407 22.672 59.8247 21.868 59.8247 20.836C59.8247 19.796 59.5367 18.984 58.9607 18.4C58.3927 17.816 57.5727 17.524 56.5007 17.524H54.9887V24.1H56.5007ZM67.325 23.14H63.677L63.005 25H61.853L64.877 16.684H66.137L69.149 25H67.997L67.325 23.14ZM67.013 22.252L65.501 18.028L63.989 22.252H67.013ZM74.871 25L72.879 21.58H71.559V25H70.467V16.636H73.167C73.799 16.636 74.331 16.744 74.763 16.96C75.203 17.176 75.531 17.468 75.747 17.836C75.963 18.204 76.071 18.624 76.071 19.096C76.071 19.672 75.903 20.18 75.567 20.62C75.239 21.06 74.743 21.352 74.079 21.496L76.179 25H74.871ZM71.559 20.704H73.167C73.759 20.704 74.203 20.56 74.499 20.272C74.795 19.976 74.943 19.584 74.943 19.096C74.943 18.6 74.795 18.216 74.499 17.944C74.211 17.672 73.767 17.536 73.167 17.536H71.559V20.704ZM82.3038 25L78.8598 21.184V25H77.7678V16.636H78.8598V20.512L82.3158 16.636H83.6958L79.9038 20.824L83.7318 25H82.3038Z" fill="white"/>
<path fill-rule="evenodd" clip-rule="evenodd" d="M33 20C33 23.866 29.866 27 26 27C24.8401 27 23.7461 26.7179 22.7828 26.2185C23.6915 26.1825 24.5427 25.8826 25.2815 25.3826C25.5474 25.4233 25.8199 25.4444 26.0972 25.4444C29.0504 25.4444 31.4444 23.0504 31.4444 20.0972C31.4444 17.144 29.0504 14.75 26.0972 14.75C25.8991 14.75 25.7035 14.7608 25.5109 14.7818C24.7212 14.1835 23.7871 13.8213 22.7828 13.7815C23.7461 13.2821 24.8401 13 26 13C29.866 13 33 16.134 33 20Z" fill="white"/>
</svg>
