<svg width="120" height="40" viewBox="0 0 120 40" fill="none" xmlns="http://www.w3.org/2000/svg">
<rect x="5" y="5" width="110" height="30" rx="15" fill="#0773C7"/>
<path d="M46.487 16.636C47.399 16.636 48.187 16.808 48.851 17.152C49.523 17.488 50.035 17.972 50.387 18.604C50.747 19.236 50.927 19.98 50.927 20.836C50.927 21.692 50.747 22.436 50.387 23.068C50.035 23.692 49.523 24.172 48.851 24.508C48.187 24.836 47.399 25 46.487 25H43.883V16.636H46.487ZM46.487 24.1C47.567 24.1 48.391 23.816 48.959 23.248C49.527 22.672 49.811 21.868 49.811 20.836C49.811 19.796 49.523 18.984 48.947 18.4C48.379 17.816 47.559 17.524 46.487 17.524H44.975V24.1H46.487ZM56.7714 25L54.7794 21.58H53.4594V25H52.3674V16.636H55.0674C55.6994 16.636 56.2314 16.744 56.6634 16.96C57.1034 17.176 57.4314 17.468 57.6474 17.836C57.8634 18.204 57.9714 18.624 57.9714 19.096C57.9714 19.672 57.8034 20.18 57.4674 20.62C57.1394 21.06 56.6434 21.352 55.9794 21.496L58.0794 25H56.7714ZM53.4594 20.704H55.0674C55.6594 20.704 56.1034 20.56 56.3994 20.272C56.6954 19.976 56.8434 19.584 56.8434 19.096C56.8434 18.6 56.6954 18.216 56.3994 17.944C56.1114 17.672 55.6674 17.536 55.0674 17.536H53.4594V20.704ZM64.6121 23.14H60.9641L60.2921 25H59.1401L62.1641 16.684H63.4241L66.4361 25H65.2841L64.6121 23.14ZM64.3001 22.252L62.7881 18.028L61.2761 22.252H64.3001ZM74.0901 19.06C73.8581 18.572 73.5221 18.196 73.0821 17.932C72.6421 17.66 72.1301 17.524 71.5461 17.524C70.9621 17.524 70.4341 17.66 69.9621 17.932C69.4981 18.196 69.1301 18.58 68.8581 19.084C68.5941 19.58 68.4621 20.156 68.4621 20.812C68.4621 21.468 68.5941 22.044 68.8581 22.54C69.1301 23.036 69.4981 23.42 69.9621 23.692C70.4341 23.956 70.9621 24.088 71.5461 24.088C72.3621 24.088 73.0341 23.844 73.5621 23.356C74.0901 22.868 74.3981 22.208 74.4861 21.376H71.1501V20.488H75.6501V21.328C75.5861 22.016 75.3701 22.648 75.0021 23.224C74.6341 23.792 74.1501 24.244 73.5501 24.58C72.9501 24.908 72.2821 25.072 71.5461 25.072C70.7701 25.072 70.0621 24.892 69.4221 24.532C68.7821 24.164 68.2741 23.656 67.8981 23.008C67.5301 22.36 67.3461 21.628 67.3461 20.812C67.3461 19.996 67.5301 19.264 67.8981 18.616C68.2741 17.96 68.7821 17.452 69.4221 17.092C70.0621 16.724 70.7701 16.54 71.5461 16.54C72.4341 16.54 73.2181 16.76 73.8981 17.2C74.5861 17.64 75.0861 18.26 75.3981 19.06H74.0901ZM80.8859 25.084C80.1099 25.084 79.4019 24.904 78.7619 24.544C78.1219 24.176 77.6139 23.668 77.2379 23.02C76.8699 22.364 76.6859 21.628 76.6859 20.812C76.6859 19.996 76.8699 19.264 77.2379 18.616C77.6139 17.96 78.1219 17.452 78.7619 17.092C79.4019 16.724 80.1099 16.54 80.8859 16.54C81.6699 16.54 82.3819 16.724 83.0219 17.092C83.6619 17.452 84.1659 17.956 84.5339 18.604C84.9019 19.252 85.0859 19.988 85.0859 20.812C85.0859 21.636 84.9019 22.372 84.5339 23.02C84.1659 23.668 83.6619 24.176 83.0219 24.544C82.3819 24.904 81.6699 25.084 80.8859 25.084ZM80.8859 24.136C81.4699 24.136 81.9939 24 82.4579 23.728C82.9299 23.456 83.2979 23.068 83.5619 22.564C83.8339 22.06 83.9699 21.476 83.9699 20.812C83.9699 20.14 83.8339 19.556 83.5619 19.06C83.2979 18.556 82.9339 18.168 82.4699 17.896C82.0059 17.624 81.4779 17.488 80.8859 17.488C80.2939 17.488 79.7659 17.624 79.3019 17.896C78.8379 18.168 78.4699 18.556 78.1979 19.06C77.9339 19.556 77.8019 20.14 77.8019 20.812C77.8019 21.476 77.9339 22.06 78.1979 22.564C78.4699 23.068 78.8379 23.456 79.3019 23.728C79.7739 24 80.3019 24.136 80.8859 24.136ZM93.1035 25H92.0115L87.6195 18.34V25H86.5275V16.624H87.6195L92.0115 23.272V16.624H93.1035V25Z" fill="white"/>
<path fill-rule="evenodd" clip-rule="evenodd" d="M26.7804 18.965C26.8888 18.8989 26.9808 18.7603 27.0551 18.6063C28.0315 19.0054 28.7176 19.9484 28.7176 21.0481C28.7176 22.5091 27.5067 23.6934 26.0129 23.6934C25.3998 23.6934 24.8342 23.4938 24.3806 23.1575C24.2317 23.087 24.1093 23.0193 24.0091 22.9639C23.8537 22.878 23.7518 22.8217 23.688 22.8305C23.5014 22.8562 23.5556 23.0278 23.6048 23.1837C23.6383 23.2896 23.6694 23.3883 23.6212 23.429C23.5707 23.4716 23.4074 23.3158 23.2165 23.1338C22.9566 22.886 22.6457 22.5896 22.4991 22.6787C22.3832 22.7491 22.4957 22.94 22.6335 23.1738L22.6437 23.1911C22.7019 23.29 22.7693 23.3905 22.8309 23.4824C22.956 23.669 23.0567 23.8193 23.0063 23.8448C22.9454 23.8755 22.5208 23.589 22.163 23.1911C22.0249 23.0376 21.8911 22.8711 21.7669 22.7165C21.4948 22.3779 21.2681 22.0959 21.1408 22.1293C20.9878 22.1695 21.1036 22.4852 21.2737 22.7891C21.3533 22.9312 21.4469 23.0759 21.5279 23.2011C21.6539 23.396 21.7496 23.5438 21.7149 23.562C21.6681 23.5865 21.2562 23.1848 20.9764 22.6787C20.8102 22.378 20.6707 22.0458 20.5577 21.7768C20.4352 21.4851 20.344 21.2678 20.2839 21.2459C20.0751 21.1699 20.0751 21.5956 20.1589 22.21C20.1698 22.2901 20.186 22.3741 20.2061 22.4597C21.0181 25.087 23.5125 27 26.4637 27C30.0736 27 33 24.1379 33 20.6072C33 17.2469 30.3491 14.4921 26.981 14.2342C26.9852 14.0759 27.0678 13.762 27.0678 13.762C27.0678 13.762 27.6625 12.3233 27.6939 12.0159C27.696 11.9955 27.6984 11.9734 27.7011 11.9497C27.7381 11.6176 27.807 11 27.2757 11C26.992 11 26.86 11.2111 26.7091 11.4525C26.6512 11.5452 26.5904 11.6423 26.5172 11.7337C25.9901 12.392 25.1037 13.214 24.6011 13.652C23.5388 14.5776 22.4966 15.3384 21.8887 15.7821L21.8887 15.7821L21.8887 15.7821C21.6122 15.9839 21.4256 16.1201 21.3679 16.1764C20.9327 16.6006 19.3723 19.4152 19.3723 19.4152C19.3723 19.4152 18.8677 20.3182 19.047 20.5013C19.2264 20.6845 19.6589 20.6425 19.6589 20.6425C19.6589 20.6425 25.4696 19.3095 25.9898 19.2043C26.1299 19.176 26.2287 19.1597 26.3046 19.1472C26.5107 19.1131 26.5477 19.107 26.7804 18.965ZM22.6721 17.252C22.3602 17.5485 21.8429 18.2561 21.8429 18.2561C21.8429 18.2561 22.8043 18.3154 23.3338 17.8121C23.8632 17.3088 23.7419 16.451 23.7419 16.451C23.7419 16.451 22.984 16.9555 22.6721 17.252Z" fill="white"/>
</svg>
