<svg width="120" height="40" viewBox="0 0 120 40" fill="none" xmlns="http://www.w3.org/2000/svg">
<rect x="5" y="5" width="110" height="30" rx="15" fill="#EDD53F"/>
<path d="M44.1312 17.524V20.32H47.1792V21.22H44.1312V24.1H47.5392V25H43.0392V16.624H47.5392V17.524H44.1312ZM50.2836 24.112H53.2116V25H49.1916V16.636H50.2836V24.112ZM55.4633 17.524V20.32H58.5113V21.22H55.4633V24.1H58.8713V25H54.3713V16.624H58.8713V17.524H55.4633ZM60.1156 20.812C60.1156 19.996 60.2996 19.264 60.6676 18.616C61.0356 17.96 61.5356 17.448 62.1676 17.08C62.8076 16.712 63.5156 16.528 64.2916 16.528C65.2036 16.528 65.9996 16.748 66.6796 17.188C67.3596 17.628 67.8556 18.252 68.1676 19.06H66.8596C66.6276 18.556 66.2916 18.168 65.8516 17.896C65.4196 17.624 64.8996 17.488 64.2916 17.488C63.7076 17.488 63.1836 17.624 62.7196 17.896C62.2556 18.168 61.8916 18.556 61.6276 19.06C61.3636 19.556 61.2316 20.14 61.2316 20.812C61.2316 21.476 61.3636 22.06 61.6276 22.564C61.8916 23.06 62.2556 23.444 62.7196 23.716C63.1836 23.988 63.7076 24.124 64.2916 24.124C64.8996 24.124 65.4196 23.992 65.8516 23.728C66.2916 23.456 66.6276 23.068 66.8596 22.564H68.1676C67.8556 23.364 67.3596 23.984 66.6796 24.424C65.9996 24.856 65.2036 25.072 64.2916 25.072C63.5156 25.072 62.8076 24.892 62.1676 24.532C61.5356 24.164 61.0356 23.656 60.6676 23.008C60.2996 22.36 60.1156 21.628 60.1156 20.812ZM74.9411 16.636V17.524H72.6611V25H71.5691V17.524H69.2771V16.636H74.9411ZM80.6893 25L78.6973 21.58H77.3773V25H76.2853V16.636H78.9853C79.6173 16.636 80.1493 16.744 80.5813 16.96C81.0213 17.176 81.3493 17.468 81.5653 17.836C81.7813 18.204 81.8893 18.624 81.8893 19.096C81.8893 19.672 81.7213 20.18 81.3853 20.62C81.0573 21.06 80.5613 21.352 79.8973 21.496L81.9973 25H80.6893ZM77.3773 20.704H78.9853C79.5773 20.704 80.0213 20.56 80.3173 20.272C80.6133 19.976 80.7613 19.584 80.7613 19.096C80.7613 18.6 80.6133 18.216 80.3173 17.944C80.0293 17.672 79.5853 17.536 78.9853 17.536H77.3773V20.704ZM84.6781 16.636V25H83.5861V16.636H84.6781ZM86.1312 20.812C86.1312 19.996 86.3152 19.264 86.6832 18.616C87.0512 17.96 87.5512 17.448 88.1832 17.08C88.8232 16.712 89.5312 16.528 90.3072 16.528C91.2192 16.528 92.0152 16.748 92.6952 17.188C93.3752 17.628 93.8712 18.252 94.1832 19.06H92.8752C92.6432 18.556 92.3072 18.168 91.8672 17.896C91.4352 17.624 90.9152 17.488 90.3072 17.488C89.7232 17.488 89.1992 17.624 88.7352 17.896C88.2712 18.168 87.9072 18.556 87.6432 19.06C87.3792 19.556 87.2472 20.14 87.2472 20.812C87.2472 21.476 87.3792 22.06 87.6432 22.564C87.9072 23.06 88.2712 23.444 88.7352 23.716C89.1992 23.988 89.7232 24.124 90.3072 24.124C90.9152 24.124 91.4352 23.992 91.8672 23.728C92.3072 23.456 92.6432 23.068 92.8752 22.564H94.1832C93.8712 23.364 93.3752 23.984 92.6952 24.424C92.0152 24.856 91.2192 25.072 90.3072 25.072C89.5312 25.072 88.8232 24.892 88.1832 24.532C87.5512 24.164 87.0512 23.656 86.6832 23.008C86.3152 22.36 86.1312 21.628 86.1312 20.812Z" fill="white"/>
<path fill-rule="evenodd" clip-rule="evenodd" d="M20.9632 12.5837C20.8643 12.298 21.0765 12 21.3788 12H26.086C26.2788 12 26.4492 12.1256 26.5062 12.3098L28.8236 19.797C28.9112 20.08 28.6997 20.3669 28.4034 20.3669H25.5221C25.3762 20.3669 25.2707 20.5065 25.3106 20.6469L26.7536 25.7264C26.8867 26.1953 26.2718 26.5005 25.9789 26.111L19.5295 17.5343C19.3115 17.2444 19.5184 16.8301 19.881 16.8301H22.1238C22.275 16.8301 22.3811 16.6811 22.3316 16.5383L20.9632 12.5837Z" fill="white"/>
</svg>
