<svg viewBox="0 0 120 40" width="120" height="40" fill="none" xmlns="http://www.w3.org/2000/svg">
<rect x="5" y="5" width="110" height="30" rx="15" fill="#EF97E6"/>
<path d="M58.4547 16.636V17.524H54.8187V20.344H57.7707V21.232H54.8187V25H53.7267V16.636H58.4547ZM64.7176 23.14H61.0696L60.3976 25H59.2456L62.2696 16.684H63.5296L66.5416 25H65.3896L64.7176 23.14ZM64.4056 22.252L62.8936 18.028L61.3816 22.252H64.4056ZM68.9515 16.636V25H67.8595V16.636H68.9515ZM75.2167 25L73.2247 21.58H71.9047V25H70.8127V16.636H73.5127C74.1447 16.636 74.6767 16.744 75.1087 16.96C75.5487 17.176 75.8767 17.468 76.0927 17.836C76.3087 18.204 76.4167 18.624 76.4167 19.096C76.4167 19.672 76.2487 20.18 75.9127 20.62C75.5847 21.06 75.0887 21.352 74.4247 21.496L76.5247 25H75.2167ZM71.9047 20.704H73.5127C74.1047 20.704 74.5487 20.56 74.8447 20.272C75.1407 19.976 75.2887 19.584 75.2887 19.096C75.2887 18.6 75.1407 18.216 74.8447 17.944C74.5567 17.672 74.1127 17.536 73.5127 17.536H71.9047V20.704ZM83.9695 16.636L81.2455 21.844V25H80.1535V21.844L77.4175 16.636H78.6295L80.6935 20.872L82.7575 16.636H83.9695Z" fill="white"/>
<path fill-rule="evenodd" clip-rule="evenodd" d="M22.2701 23.9239L24.3448 23.3223L26.2872 26.8738C26.3792 27.042 26.6208 27.042 26.7128 26.8738L28.6552 23.3223L30.7299 23.9239C30.9141 23.9773 31.0845 23.806 31.0301 23.6221L30.4306 21.596L33.8738 19.7128C34.042 19.6208 34.042 19.3792 33.8738 19.2872L30.3991 17.3868L31.0301 15.2543C31.0845 15.0704 30.9141 14.8991 30.7299 14.9525L28.5968 15.571L26.7128 12.1262C26.6208 11.958 26.3792 11.958 26.2872 12.1262L24.4032 15.571L22.2701 14.9525C22.0859 14.8991 21.9155 15.0704 21.9699 15.2543L22.6009 17.3868L19.1262 19.2872C18.958 19.3792 18.958 19.6208 19.1262 19.7128L22.5694 21.596L21.9699 23.6221C21.9155 23.806 22.0859 23.9773 22.2701 23.9239ZM24.1649 19.7332L25.55 20.4907L26.3075 21.8758C26.3995 22.044 26.6412 22.044 26.7332 21.8758L27.4907 20.4907L28.8758 19.7332C29.044 19.6412 29.044 19.3995 28.8758 19.3075L27.4907 18.55L26.7332 17.1649C26.6412 16.9966 26.3995 16.9966 26.3075 17.1649L25.55 18.55L24.1649 19.3075C23.9966 19.3995 23.9966 19.6412 24.1649 19.7332Z" fill="white"/>
</svg>
