<svg width="120" height="40" viewBox="0 0 120 40" fill="none" xmlns="http://www.w3.org/2000/svg">
<rect x="5" y="5" width="110" height="30" rx="15" fill="#D94256"/>
<path d="M57.5817 16.636V17.524H53.9457V20.344H56.8977V21.232H53.9457V25H52.8537V16.636H57.5817ZM59.9926 16.636V25H58.9006V16.636H59.9926ZM68.1897 19.06C67.9577 18.572 67.6217 18.196 67.1817 17.932C66.7417 17.66 66.2297 17.524 65.6457 17.524C65.0617 17.524 64.5337 17.66 64.0617 17.932C63.5977 18.196 63.2297 18.58 62.9577 19.084C62.6937 19.58 62.5617 20.156 62.5617 20.812C62.5617 21.468 62.6937 22.044 62.9577 22.54C63.2297 23.036 63.5977 23.42 64.0617 23.692C64.5337 23.956 65.0617 24.088 65.6457 24.088C66.4617 24.088 67.1337 23.844 67.6617 23.356C68.1897 22.868 68.4977 22.208 68.5857 21.376H65.2497V20.488H69.7497V21.328C69.6857 22.016 69.4697 22.648 69.1017 23.224C68.7337 23.792 68.2497 24.244 67.6497 24.58C67.0497 24.908 66.3817 25.072 65.6457 25.072C64.8697 25.072 64.1617 24.892 63.5217 24.532C62.8817 24.164 62.3737 23.656 61.9977 23.008C61.6297 22.36 61.4457 21.628 61.4457 20.812C61.4457 19.996 61.6297 19.264 61.9977 18.616C62.3737 17.96 62.8817 17.452 63.5217 17.092C64.1617 16.724 64.8697 16.54 65.6457 16.54C66.5337 16.54 67.3177 16.76 67.9977 17.2C68.6857 17.64 69.1857 18.26 69.4977 19.06H68.1897ZM77.6375 16.636V25H76.5455V21.208H72.2855V25H71.1935V16.636H72.2855V20.308H76.5455V16.636H77.6375ZM84.6501 16.636V17.524H82.3701V25H81.2781V17.524H78.9861V16.636H84.6501Z" fill="white"/>
<path fill-rule="evenodd" clip-rule="evenodd" d="M21.0869 13.2471C21.2684 12.5303 21.9177 12 22.6909 12C23.2733 12 23.7854 12.3009 24.0802 12.7557C24.1257 12.7519 24.1717 12.75 24.2182 12.75C24.3255 12.75 24.4304 12.7602 24.5321 12.7797C24.8342 12.4539 25.266 12.25 25.7455 12.25C26.4267 12.25 27.0118 12.6618 27.2655 13.25L27.2727 13.25C27.3904 13.25 27.5052 13.2623 27.6159 13.2856C27.8808 13.1054 28.2008 13 28.5455 13C29.2607 13 29.8699 13.4538 30.1009 14.0892C30.2263 14.1322 30.3448 14.1898 30.4545 14.2601C30.7117 14.0955 31.0174 14 31.3455 14C32.2592 14 33 14.7408 33 15.6545V20.625V20.7056C33 20.736 32.9992 20.7663 32.9975 20.7964C32.8978 24.238 29.8031 27 26 27C22.134 27 19 24.1458 19 20.625C19 18.9255 19.7302 17.3813 20.9205 16.2385C20.9175 17.8965 20.9455 19.6111 21.0745 19.5817C21.42 19.5029 21.1501 14.3687 21.0869 13.2471Z" fill="white"/>
</svg>
