<svg width="120" height="40" viewBox="0 0 120 40" fill="none" xmlns="http://www.w3.org/2000/svg">
<rect x="5" y="5" width="110" height="30" rx="15" fill="#F8A54F"/>
<path d="M62.9254 16.636V17.524H59.2894V20.344H62.2414V21.232H59.2894V25H58.1974V16.636H62.9254ZM65.3363 16.636V25H64.2443V16.636H65.3363ZM71.6014 25L69.6094 21.58H68.2894V25H67.1974V16.636H69.8974C70.5294 16.636 71.0614 16.744 71.4934 16.96C71.9334 17.176 72.2614 17.468 72.4774 17.836C72.6934 18.204 72.8014 18.624 72.8014 19.096C72.8014 19.672 72.6334 20.18 72.2974 20.62C71.9694 21.06 71.4734 21.352 70.8094 21.496L72.9094 25H71.6014ZM68.2894 20.704H69.8974C70.4894 20.704 70.9334 20.56 71.2294 20.272C71.5254 19.976 71.6734 19.584 71.6734 19.096C71.6734 18.6 71.5254 18.216 71.2294 17.944C70.9414 17.672 70.4974 17.536 69.8974 17.536H68.2894V20.704ZM75.5902 17.524V20.32H78.6382V21.22H75.5902V24.1H78.9982V25H74.4982V16.624H78.9982V17.524H75.5902Z" fill="white"/>
<path fill-rule="evenodd" clip-rule="evenodd" d="M27.4855 23.44C27.6685 22.7708 27.3133 21.3949 27.3133 21.3949C27.3133 21.3949 27.0556 22.5157 26.6529 22.93C26.3095 23.2834 25.8886 23.5285 25.2851 23.5929C25.7785 23.3532 26.1179 22.8534 26.1179 22.2757C26.1179 21.4649 25.4492 20.8075 24.6243 20.8075C23.7994 20.8075 23.1307 21.4649 23.1307 22.2757C23.1307 22.4972 23.1806 22.7072 23.2699 22.8955C22.754 22.4845 22.6728 21.8255 22.6728 21.8255C22.6728 21.8255 22.0967 24.2174 23.6842 25.3426C25.2716 26.4678 28.3813 25.5006 28.3813 25.5006C28.3813 25.5006 23.9311 28.6319 20.6335 25.2239C17.7929 22.2882 19.8921 18.4232 19.8921 18.4232C19.8921 18.4232 19.8014 18.7818 19.8014 19.198C19.8014 19.6142 20.0271 19.9309 20.0271 19.9309C20.0271 19.9309 20.7002 18.512 21.2241 17.935C21.7199 17.3889 22.3414 16.946 22.8782 16.5635C23.2914 16.269 23.6545 16.0102 23.8713 15.7678C25.0656 14.4324 24.3333 12 24.3333 12C24.3333 12 25.6796 13.1868 26.0554 14.7197C26.1987 15.3039 26.1065 15.9687 26.0241 16.5632C25.8903 17.5283 25.7822 18.3081 26.7487 18.2575C28.3106 18.1758 26.9534 15.7678 26.9534 15.7678C26.9534 15.7678 30.4963 17.6299 30.2316 20.8867C29.9669 24.1435 26.359 24.8839 26.359 24.8839C26.359 24.8839 27.3025 24.1093 27.4855 23.44Z" fill="white"/>
</svg>
