<svg width="120" height="40" viewBox="0 0 120 40" fill="none" xmlns="http://www.w3.org/2000/svg">
<rect x="5" y="5" width="110" height="30" rx="15" fill="#9BB4E8"/>
<path d="M54.6696 16.636V17.524H51.0336V20.344H53.9856V21.232H51.0336V25H49.9416V16.636H54.6696ZM57.0805 24.112H60.0085V25H55.9885V16.636H57.0805V24.112ZM67.0241 16.636L64.3001 21.844V25H63.2081V21.844L60.4721 16.636H61.6841L63.7481 20.872L65.8121 16.636H67.0241ZM69.268 16.636V25H68.176V16.636H69.268ZM77.7051 25H76.6131L72.2211 18.34V25H71.1291V16.624H72.2211L76.6131 23.272V16.624H77.7051V25ZM85.9026 19.06C85.6706 18.572 85.3346 18.196 84.8946 17.932C84.4546 17.66 83.9426 17.524 83.3586 17.524C82.7746 17.524 82.2466 17.66 81.7746 17.932C81.3106 18.196 80.9426 18.58 80.6706 19.084C80.4066 19.58 80.2746 20.156 80.2746 20.812C80.2746 21.468 80.4066 22.044 80.6706 22.54C80.9426 23.036 81.3106 23.42 81.7746 23.692C82.2466 23.956 82.7746 24.088 83.3586 24.088C84.1746 24.088 84.8466 23.844 85.3746 23.356C85.9026 22.868 86.2106 22.208 86.2986 21.376H82.9626V20.488H87.4626V21.328C87.3986 22.016 87.1826 22.648 86.8146 23.224C86.4466 23.792 85.9626 24.244 85.3626 24.58C84.7626 24.908 84.0946 25.072 83.3586 25.072C82.5826 25.072 81.8746 24.892 81.2346 24.532C80.5946 24.164 80.0866 23.656 79.7106 23.008C79.3426 22.36 79.1586 21.628 79.1586 20.812C79.1586 19.996 79.3426 19.264 79.7106 18.616C80.0866 17.96 80.5946 17.452 81.2346 17.092C81.8746 16.724 82.5826 16.54 83.3586 16.54C84.2466 16.54 85.0306 16.76 85.7106 17.2C86.3986 17.64 86.8986 18.26 87.2106 19.06H85.9026Z" fill="white"/>
<ellipse cx="26.5" cy="18.5" rx="7.5" ry="6.5" fill="white"/>
</svg>
