<svg width="120" height="40" viewBox="0 0 120 40" fill="none" xmlns="http://www.w3.org/2000/svg">
<rect x="5" y="5" width="110" height="30" rx="15" fill="#6970C5"/>
<path d="M55.4514 19.06C55.2194 18.572 54.8834 18.196 54.4434 17.932C54.0034 17.66 53.4914 17.524 52.9074 17.524C52.3234 17.524 51.7954 17.66 51.3234 17.932C50.8594 18.196 50.4914 18.58 50.2194 19.084C49.9554 19.58 49.8234 20.156 49.8234 20.812C49.8234 21.468 49.9554 22.044 50.2194 22.54C50.4914 23.036 50.8594 23.42 51.3234 23.692C51.7954 23.956 52.3234 24.088 52.9074 24.088C53.7234 24.088 54.3954 23.844 54.9234 23.356C55.4514 22.868 55.7594 22.208 55.8474 21.376H52.5114V20.488H57.0114V21.328C56.9474 22.016 56.7314 22.648 56.3634 23.224C55.9954 23.792 55.5114 24.244 54.9114 24.58C54.3114 24.908 53.6434 25.072 52.9074 25.072C52.1314 25.072 51.4234 24.892 50.7834 24.532C50.1434 24.164 49.6354 23.656 49.2594 23.008C48.8914 22.36 48.7074 21.628 48.7074 20.812C48.7074 19.996 48.8914 19.264 49.2594 18.616C49.6354 17.96 50.1434 17.452 50.7834 17.092C51.4234 16.724 52.1314 16.54 52.9074 16.54C53.7954 16.54 54.5794 16.76 55.2594 17.2C55.9474 17.64 56.4474 18.26 56.7594 19.06H55.4514ZM64.8993 16.636V25H63.8073V21.208H59.5473V25H58.4553V16.636H59.5473V20.308H63.8073V16.636H64.8993ZM70.5558 25.084C69.7798 25.084 69.0718 24.904 68.4318 24.544C67.7918 24.176 67.2838 23.668 66.9078 23.02C66.5398 22.364 66.3558 21.628 66.3558 20.812C66.3558 19.996 66.5398 19.264 66.9078 18.616C67.2838 17.96 67.7918 17.452 68.4318 17.092C69.0718 16.724 69.7798 16.54 70.5558 16.54C71.3398 16.54 72.0518 16.724 72.6918 17.092C73.3318 17.452 73.8358 17.956 74.2038 18.604C74.5718 19.252 74.7558 19.988 74.7558 20.812C74.7558 21.636 74.5718 22.372 74.2038 23.02C73.8358 23.668 73.3318 24.176 72.6918 24.544C72.0518 24.904 71.3398 25.084 70.5558 25.084ZM70.5558 24.136C71.1398 24.136 71.6638 24 72.1278 23.728C72.5998 23.456 72.9678 23.068 73.2318 22.564C73.5038 22.06 73.6398 21.476 73.6398 20.812C73.6398 20.14 73.5038 19.556 73.2318 19.06C72.9678 18.556 72.6038 18.168 72.1398 17.896C71.6758 17.624 71.1478 17.488 70.5558 17.488C69.9638 17.488 69.4358 17.624 68.9718 17.896C68.5078 18.168 68.1398 18.556 67.8678 19.06C67.6038 19.556 67.4718 20.14 67.4718 20.812C67.4718 21.476 67.6038 22.06 67.8678 22.564C68.1398 23.068 68.5078 23.456 68.9718 23.728C69.4438 24 69.9718 24.136 70.5558 24.136ZM78.8494 25.084C78.2974 25.084 77.8014 24.988 77.3614 24.796C76.9294 24.596 76.5894 24.324 76.3414 23.98C76.0934 23.628 75.9654 23.224 75.9574 22.768H77.1214C77.1614 23.16 77.3214 23.492 77.6014 23.764C77.8894 24.028 78.3054 24.16 78.8494 24.16C79.3694 24.16 79.7774 24.032 80.0734 23.776C80.3774 23.512 80.5294 23.176 80.5294 22.768C80.5294 22.448 80.4414 22.188 80.2654 21.988C80.0894 21.788 79.8694 21.636 79.6054 21.532C79.3414 21.428 78.9854 21.316 78.5374 21.196C77.9854 21.052 77.5414 20.908 77.2054 20.764C76.8774 20.62 76.5934 20.396 76.3534 20.092C76.1214 19.78 76.0054 19.364 76.0054 18.844C76.0054 18.388 76.1214 17.984 76.3534 17.632C76.5854 17.28 76.9094 17.008 77.3254 16.816C77.7494 16.624 78.2334 16.528 78.7774 16.528C79.5614 16.528 80.2014 16.724 80.6974 17.116C81.2014 17.508 81.4854 18.028 81.5494 18.676H80.3494C80.3094 18.356 80.1414 18.076 79.8454 17.836C79.5494 17.588 79.1574 17.464 78.6694 17.464C78.2134 17.464 77.8414 17.584 77.5534 17.824C77.2654 18.056 77.1214 18.384 77.1214 18.808C77.1214 19.112 77.2054 19.36 77.3734 19.552C77.5494 19.744 77.7614 19.892 78.0094 19.996C78.2654 20.092 78.6214 20.204 79.0774 20.332C79.6294 20.484 80.0734 20.636 80.4094 20.788C80.7454 20.932 81.0334 21.16 81.2734 21.472C81.5134 21.776 81.6334 22.192 81.6334 22.72C81.6334 23.128 81.5254 23.512 81.3094 23.872C81.0934 24.232 80.7734 24.524 80.3494 24.748C79.9254 24.972 79.4254 25.084 78.8494 25.084ZM88.3884 16.636V17.524H86.1084V25H85.0164V17.524H82.7244V16.636H88.3884Z" fill="white"/>
<path fill-rule="evenodd" clip-rule="evenodd" d="M26 26C29.866 26 33 22.866 33 19C33 15.134 29.866 12 26 12C22.134 12 19 15.134 19 19C19 22.866 22.134 26 26 26ZM23.9219 19.0721C24.5259 19.0721 25.0156 18.5924 25.0156 18.0006H24.3394C23.8188 18.0006 23.3945 17.588 23.3757 17.072C23.0484 17.2572 22.8281 17.6037 22.8281 18.0006C22.8281 18.5924 23.3178 19.0721 23.9219 19.0721ZM26.7656 18.0006C26.7656 18.5924 27.2553 19.0721 27.8594 19.0721C28.4634 19.0721 28.9531 18.5924 28.9531 18.0006C28.9531 17.6037 28.7329 17.2572 28.4056 17.072C28.3868 17.588 27.9625 18.0006 27.4419 18.0006H26.7656Z" fill="white"/>
</svg>
