<svg width="120" height="40" viewBox="0 0 120 40" fill="none" xmlns="http://www.w3.org/2000/svg">
<rect x="5" y="5" width="110" height="30" rx="15" fill="#5DBE62"/>
<path d="M56.3538 19.06C56.1218 18.572 55.7858 18.196 55.3458 17.932C54.9058 17.66 54.3938 17.524 53.8098 17.524C53.2258 17.524 52.6978 17.66 52.2258 17.932C51.7618 18.196 51.3938 18.58 51.1218 19.084C50.8578 19.58 50.7258 20.156 50.7258 20.812C50.7258 21.468 50.8578 22.044 51.1218 22.54C51.3938 23.036 51.7618 23.42 52.2258 23.692C52.6978 23.956 53.2258 24.088 53.8098 24.088C54.6258 24.088 55.2978 23.844 55.8258 23.356C56.3538 22.868 56.6618 22.208 56.7498 21.376H53.4138V20.488H57.9138V21.328C57.8498 22.016 57.6338 22.648 57.2658 23.224C56.8978 23.792 56.4138 24.244 55.8138 24.58C55.2138 24.908 54.5458 25.072 53.8098 25.072C53.0338 25.072 52.3258 24.892 51.6858 24.532C51.0458 24.164 50.5378 23.656 50.1618 23.008C49.7938 22.36 49.6098 21.628 49.6098 20.812C49.6098 19.996 49.7938 19.264 50.1618 18.616C50.5378 17.96 51.0458 17.452 51.6858 17.092C52.3258 16.724 53.0338 16.54 53.8098 16.54C54.6978 16.54 55.4818 16.76 56.1618 17.2C56.8498 17.64 57.3498 18.26 57.6618 19.06H56.3538ZM63.7616 25L61.7696 21.58H60.4496V25H59.3576V16.636H62.0576C62.6896 16.636 63.2216 16.744 63.6536 16.96C64.0936 17.176 64.4216 17.468 64.6376 17.836C64.8536 18.204 64.9616 18.624 64.9616 19.096C64.9616 19.672 64.7936 20.18 64.4576 20.62C64.1296 21.06 63.6336 21.352 62.9696 21.496L65.0696 25H63.7616ZM60.4496 20.704H62.0576C62.6496 20.704 63.0936 20.56 63.3896 20.272C63.6856 19.976 63.8336 19.584 63.8336 19.096C63.8336 18.6 63.6856 18.216 63.3896 17.944C63.1016 17.672 62.6576 17.536 62.0576 17.536H60.4496V20.704ZM71.6024 23.14H67.9544L67.2824 25H66.1304L69.1544 16.684H70.4144L73.4264 25H72.2744L71.6024 23.14ZM71.2904 22.252L69.7784 18.028L68.2664 22.252H71.2904ZM77.3963 25.084C76.8443 25.084 76.3483 24.988 75.9083 24.796C75.4763 24.596 75.1363 24.324 74.8883 23.98C74.6403 23.628 74.5123 23.224 74.5043 22.768H75.6683C75.7083 23.16 75.8683 23.492 76.1483 23.764C76.4363 24.028 76.8523 24.16 77.3963 24.16C77.9163 24.16 78.3243 24.032 78.6203 23.776C78.9243 23.512 79.0763 23.176 79.0763 22.768C79.0763 22.448 78.9883 22.188 78.8123 21.988C78.6363 21.788 78.4163 21.636 78.1523 21.532C77.8883 21.428 77.5323 21.316 77.0843 21.196C76.5323 21.052 76.0883 20.908 75.7523 20.764C75.4243 20.62 75.1403 20.396 74.9003 20.092C74.6683 19.78 74.5523 19.364 74.5523 18.844C74.5523 18.388 74.6683 17.984 74.9003 17.632C75.1323 17.28 75.4563 17.008 75.8723 16.816C76.2963 16.624 76.7803 16.528 77.3243 16.528C78.1083 16.528 78.7483 16.724 79.2443 17.116C79.7483 17.508 80.0323 18.028 80.0963 18.676H78.8963C78.8563 18.356 78.6883 18.076 78.3923 17.836C78.0963 17.588 77.7043 17.464 77.2163 17.464C76.7603 17.464 76.3883 17.584 76.1003 17.824C75.8123 18.056 75.6683 18.384 75.6683 18.808C75.6683 19.112 75.7523 19.36 75.9203 19.552C76.0963 19.744 76.3083 19.892 76.5563 19.996C76.8123 20.092 77.1683 20.204 77.6243 20.332C78.1763 20.484 78.6203 20.636 78.9563 20.788C79.2923 20.932 79.5803 21.16 79.8203 21.472C80.0603 21.776 80.1803 22.192 80.1803 22.72C80.1803 23.128 80.0723 23.512 79.8563 23.872C79.6403 24.232 79.3203 24.524 78.8963 24.748C78.4723 24.972 77.9723 25.084 77.3963 25.084ZM84.4393 25.084C83.8873 25.084 83.3913 24.988 82.9513 24.796C82.5193 24.596 82.1793 24.324 81.9313 23.98C81.6833 23.628 81.5553 23.224 81.5473 22.768H82.7113C82.7513 23.16 82.9113 23.492 83.1913 23.764C83.4793 24.028 83.8953 24.16 84.4393 24.16C84.9593 24.16 85.3673 24.032 85.6633 23.776C85.9673 23.512 86.1193 23.176 86.1193 22.768C86.1193 22.448 86.0313 22.188 85.8553 21.988C85.6793 21.788 85.4593 21.636 85.1953 21.532C84.9313 21.428 84.5753 21.316 84.1273 21.196C83.5753 21.052 83.1313 20.908 82.7953 20.764C82.4673 20.62 82.1833 20.396 81.9433 20.092C81.7113 19.78 81.5953 19.364 81.5953 18.844C81.5953 18.388 81.7113 17.984 81.9433 17.632C82.1753 17.28 82.4993 17.008 82.9153 16.816C83.3393 16.624 83.8233 16.528 84.3673 16.528C85.1513 16.528 85.7913 16.724 86.2873 17.116C86.7913 17.508 87.0753 18.028 87.1393 18.676H85.9393C85.8993 18.356 85.7313 18.076 85.4353 17.836C85.1393 17.588 84.7473 17.464 84.2593 17.464C83.8033 17.464 83.4313 17.584 83.1433 17.824C82.8553 18.056 82.7113 18.384 82.7113 18.808C82.7113 19.112 82.7953 19.36 82.9633 19.552C83.1393 19.744 83.3513 19.892 83.5993 19.996C83.8553 20.092 84.2113 20.204 84.6673 20.332C85.2193 20.484 85.6633 20.636 85.9993 20.788C86.3353 20.932 86.6233 21.16 86.8633 21.472C87.1033 21.776 87.2233 22.192 87.2233 22.72C87.2233 23.128 87.1153 23.512 86.8993 23.872C86.6833 24.232 86.3633 24.524 85.9393 24.748C85.5153 24.972 85.0153 25.084 84.4393 25.084Z" fill="white"/>
<path fill-rule="evenodd" clip-rule="evenodd" d="M24.1959 25.63C26.664 27.1964 30.3575 26.5614 32.9594 23.9594C35.8884 21.0305 36.325 16.7184 33.9347 14.3281C31.5443 11.9377 27.2322 12.3744 24.3033 15.3033C21.3744 18.2322 20.9377 22.5443 23.3281 24.9347C23.3733 24.9799 23.4193 25.0242 23.4659 25.0674L25.4449 22.6256L25.4449 19.9299L26.1037 21.9569L27.5249 20.3548L27.2475 18.5189L28.0354 19.6308L30.0759 17.3421L28.6414 19.9299L30.0759 20.3548L28.2617 20.7522L26.668 22.3749L29.1758 22.6256L26.1037 23.2888L24.1959 25.63Z" fill="white"/>
</svg>
