<svg width="120" height="40" viewBox="0 0 120 40" fill="none" xmlns="http://www.w3.org/2000/svg">
<rect x="5" y="5" width="110" height="30" rx="15" fill="#D78555"/>
<path d="M50.2131 19.06C49.9811 18.572 49.6451 18.196 49.2051 17.932C48.7651 17.66 48.2531 17.524 47.6691 17.524C47.0851 17.524 46.5571 17.66 46.0851 17.932C45.6211 18.196 45.2531 18.58 44.9811 19.084C44.7171 19.58 44.5851 20.156 44.5851 20.812C44.5851 21.468 44.7171 22.044 44.9811 22.54C45.2531 23.036 45.6211 23.42 46.0851 23.692C46.5571 23.956 47.0851 24.088 47.6691 24.088C48.4851 24.088 49.1571 23.844 49.6851 23.356C50.2131 22.868 50.5211 22.208 50.6091 21.376H47.2731V20.488H51.7731V21.328C51.7091 22.016 51.4931 22.648 51.1251 23.224C50.7571 23.792 50.2731 24.244 49.6731 24.58C49.0731 24.908 48.4051 25.072 47.6691 25.072C46.8931 25.072 46.1851 24.892 45.5451 24.532C44.9051 24.164 44.3971 23.656 44.0211 23.008C43.6531 22.36 43.4691 21.628 43.4691 20.812C43.4691 19.996 43.6531 19.264 44.0211 18.616C44.3971 17.96 44.9051 17.452 45.5451 17.092C46.1851 16.724 46.8931 16.54 47.6691 16.54C48.5571 16.54 49.3411 16.76 50.0211 17.2C50.7091 17.64 51.2091 18.26 51.5211 19.06H50.2131ZM57.621 25L55.629 21.58H54.309V25H53.217V16.636H55.917C56.549 16.636 57.081 16.744 57.513 16.96C57.953 17.176 58.281 17.468 58.497 17.836C58.713 18.204 58.821 18.624 58.821 19.096C58.821 19.672 58.653 20.18 58.317 20.62C57.989 21.06 57.493 21.352 56.829 21.496L58.929 25H57.621ZM54.309 20.704H55.917C56.509 20.704 56.953 20.56 57.249 20.272C57.545 19.976 57.693 19.584 57.693 19.096C57.693 18.6 57.545 18.216 57.249 17.944C56.961 17.672 56.517 17.536 55.917 17.536H54.309V20.704ZM64.3098 25.084C63.5338 25.084 62.8258 24.904 62.1858 24.544C61.5458 24.176 61.0378 23.668 60.6618 23.02C60.2938 22.364 60.1098 21.628 60.1098 20.812C60.1098 19.996 60.2938 19.264 60.6618 18.616C61.0378 17.96 61.5458 17.452 62.1858 17.092C62.8258 16.724 63.5338 16.54 64.3098 16.54C65.0938 16.54 65.8058 16.724 66.4458 17.092C67.0858 17.452 67.5898 17.956 67.9578 18.604C68.3258 19.252 68.5098 19.988 68.5098 20.812C68.5098 21.636 68.3258 22.372 67.9578 23.02C67.5898 23.668 67.0858 24.176 66.4458 24.544C65.8058 24.904 65.0938 25.084 64.3098 25.084ZM64.3098 24.136C64.8938 24.136 65.4178 24 65.8818 23.728C66.3538 23.456 66.7218 23.068 66.9858 22.564C67.2578 22.06 67.3938 21.476 67.3938 20.812C67.3938 20.14 67.2578 19.556 66.9858 19.06C66.7218 18.556 66.3578 18.168 65.8938 17.896C65.4298 17.624 64.9018 17.488 64.3098 17.488C63.7178 17.488 63.1898 17.624 62.7258 17.896C62.2618 18.168 61.8938 18.556 61.6218 19.06C61.3578 19.556 61.2258 20.14 61.2258 20.812C61.2258 21.476 61.3578 22.06 61.6218 22.564C61.8938 23.068 62.2618 23.456 62.7258 23.728C63.1978 24 63.7258 24.136 64.3098 24.136ZM71.0193 16.636V21.928C71.0193 22.672 71.1993 23.224 71.5593 23.584C71.9273 23.944 72.4353 24.124 73.0833 24.124C73.7233 24.124 74.2233 23.944 74.5833 23.584C74.9513 23.224 75.1353 22.672 75.1353 21.928V16.636H76.2273V21.916C76.2273 22.612 76.0873 23.2 75.8073 23.68C75.5273 24.152 75.1473 24.504 74.6673 24.736C74.1953 24.968 73.6633 25.084 73.0713 25.084C72.4793 25.084 71.9433 24.968 71.4633 24.736C70.9913 24.504 70.6153 24.152 70.3353 23.68C70.0633 23.2 69.9273 22.612 69.9273 21.916V16.636H71.0193ZM84.625 25H83.533L79.141 18.34V25H78.049V16.624H79.141L83.533 23.272V16.624H84.625V25ZM89.0905 16.636C90.0025 16.636 90.7905 16.808 91.4545 17.152C92.1265 17.488 92.6385 17.972 92.9905 18.604C93.3505 19.236 93.5305 19.98 93.5305 20.836C93.5305 21.692 93.3505 22.436 92.9905 23.068C92.6385 23.692 92.1265 24.172 91.4545 24.508C90.7905 24.836 90.0025 25 89.0905 25H86.4865V16.636H89.0905ZM89.0905 24.1C90.1705 24.1 90.9945 23.816 91.5625 23.248C92.1305 22.672 92.4145 21.868 92.4145 20.836C92.4145 19.796 92.1265 18.984 91.5505 18.4C90.9825 17.816 90.1625 17.524 89.0905 17.524H87.5785V24.1H89.0905Z" fill="white"/>
<path fill-rule="evenodd" clip-rule="evenodd" d="M22.3683 24.9572C22.3074 24.9572 22.2648 24.8969 22.2851 24.8395L26.0738 14.134C26.1023 14.0537 26.1782 14 26.2634 14H30.122C30.2075 14 30.2837 14.0541 30.3119 14.1349L33.9919 24.6898C34.0375 24.8206 33.9404 24.9572 33.802 24.9572H22.3683ZM19.1978 25C19.0574 25 18.9602 24.8598 19.0094 24.7283L21.7478 17.4177C21.7772 17.3392 21.8522 17.2871 21.9361 17.2871H24.0289C24.1683 17.2871 24.2655 17.4256 24.218 17.5567L21.5701 24.8674C21.5413 24.947 21.4657 25 21.381 25H19.1978Z" fill="white"/>
</svg>
