<svg width="120" height="40" viewBox="0 0 120 40" fill="none" xmlns="http://www.w3.org/2000/svg">
<rect x="5" y="5" width="110" height="30" rx="15" fill="#7ED4C9"/>
<path d="M61.3285 16.636V25H60.2365V16.636H61.3285ZM62.7816 20.812C62.7816 19.996 62.9656 19.264 63.3336 18.616C63.7016 17.96 64.2016 17.448 64.8336 17.08C65.4736 16.712 66.1816 16.528 66.9576 16.528C67.8696 16.528 68.6656 16.748 69.3456 17.188C70.0256 17.628 70.5216 18.252 70.8336 19.06H69.5256C69.2936 18.556 68.9576 18.168 68.5176 17.896C68.0856 17.624 67.5656 17.488 66.9576 17.488C66.3736 17.488 65.8496 17.624 65.3856 17.896C64.9216 18.168 64.5576 18.556 64.2936 19.06C64.0296 19.556 63.8976 20.14 63.8976 20.812C63.8976 21.476 64.0296 22.06 64.2936 22.564C64.5576 23.06 64.9216 23.444 65.3856 23.716C65.8496 23.988 66.3736 24.124 66.9576 24.124C67.5656 24.124 68.0856 23.992 68.5176 23.728C68.9576 23.456 69.2936 23.068 69.5256 22.564H70.8336C70.5216 23.364 70.0256 23.984 69.3456 24.424C68.6656 24.856 67.8696 25.072 66.9576 25.072C66.1816 25.072 65.4736 24.892 64.8336 24.532C64.2016 24.164 63.7016 23.656 63.3336 23.008C62.9656 22.36 62.7816 21.628 62.7816 20.812ZM73.5512 17.524V20.32H76.5992V21.22H73.5512V24.1H76.9592V25H72.4592V16.624H76.9592V17.524H73.5512Z" fill="white"/>
<path fill-rule="evenodd" clip-rule="evenodd" d="M31.653 12.3357L31.7051 16.9134L27.7124 18.8301L27.6631 14.5079L31.653 12.3357Z" fill="white"/>
<path fill-rule="evenodd" clip-rule="evenodd" d="M35.6554 19.549L31.7029 21.8098L27.7481 19.5454L31.7009 17.4691L35.6554 19.549Z" fill="white"/>
<path fill-rule="evenodd" clip-rule="evenodd" d="M27.0451 19.549L23.0925 21.8098L19.1377 19.5454L23.0905 17.4691L27.0451 19.549Z" fill="white"/>
<path fill-rule="evenodd" clip-rule="evenodd" d="M23.0481 12.317L27.1505 14.3487L27.0457 18.7764L23.1722 16.858L23.0481 12.317Z" fill="white"/>
<path fill-rule="evenodd" clip-rule="evenodd" d="M31.7646 26.7118L27.6622 24.68L27.7671 20.2523L31.6405 22.1707L31.7646 26.7118Z" fill="white"/>
<path fill-rule="evenodd" clip-rule="evenodd" d="M23.1898 26.753L23.1377 22.1753L27.1304 20.2586L27.1796 24.5808L23.1898 26.753Z" fill="white"/>
</svg>
