<svg width="120" height="40" viewBox="0 0 120 40" fill="none" xmlns="http://www.w3.org/2000/svg">
<rect x="5" y="5" width="110" height="30" rx="15" fill="#9A9DA1"/>
<path d="M51.6133 25H50.5213L46.1293 18.34V25H45.0373V16.624H46.1293L50.5213 23.272V16.624H51.6133V25ZM57.2668 25.084C56.4908 25.084 55.7828 24.904 55.1428 24.544C54.5028 24.176 53.9948 23.668 53.6188 23.02C53.2508 22.364 53.0668 21.628 53.0668 20.812C53.0668 19.996 53.2508 19.264 53.6188 18.616C53.9948 17.96 54.5028 17.452 55.1428 17.092C55.7828 16.724 56.4908 16.54 57.2668 16.54C58.0508 16.54 58.7628 16.724 59.4028 17.092C60.0428 17.452 60.5468 17.956 60.9148 18.604C61.2828 19.252 61.4668 19.988 61.4668 20.812C61.4668 21.636 61.2828 22.372 60.9148 23.02C60.5468 23.668 60.0428 24.176 59.4028 24.544C58.7628 24.904 58.0508 25.084 57.2668 25.084ZM57.2668 24.136C57.8508 24.136 58.3748 24 58.8388 23.728C59.3108 23.456 59.6788 23.068 59.9428 22.564C60.2148 22.06 60.3508 21.476 60.3508 20.812C60.3508 20.14 60.2148 19.556 59.9428 19.06C59.6788 18.556 59.3148 18.168 58.8508 17.896C58.3868 17.624 57.8588 17.488 57.2668 17.488C56.6748 17.488 56.1468 17.624 55.6828 17.896C55.2188 18.168 54.8508 18.556 54.5788 19.06C54.3148 19.556 54.1828 20.14 54.1828 20.812C54.1828 21.476 54.3148 22.06 54.5788 22.564C54.8508 23.068 55.2188 23.456 55.6828 23.728C56.1548 24 56.6828 24.136 57.2668 24.136ZM67.3124 25L65.3204 21.58H64.0004V25H62.9084V16.636H65.6084C66.2404 16.636 66.7724 16.744 67.2044 16.96C67.6444 17.176 67.9724 17.468 68.1884 17.836C68.4044 18.204 68.5124 18.624 68.5124 19.096C68.5124 19.672 68.3444 20.18 68.0084 20.62C67.6804 21.06 67.1844 21.352 66.5204 21.496L68.6204 25H67.3124ZM64.0004 20.704H65.6084C66.2004 20.704 66.6444 20.56 66.9404 20.272C67.2364 19.976 67.3844 19.584 67.3844 19.096C67.3844 18.6 67.2364 18.216 66.9404 17.944C66.6524 17.672 66.2084 17.536 65.6084 17.536H64.0004V20.704ZM78.6932 16.696V25H77.6012V18.808L74.8412 25H74.0732L71.3012 18.796V25H70.2092V16.696H71.3852L74.4572 23.56L77.5292 16.696H78.6932ZM85.4891 23.14H81.8411L81.1691 25H80.0171L83.0411 16.684H84.3011L87.3131 25H86.1611L85.4891 23.14ZM85.1771 22.252L83.6651 18.028L82.1531 22.252H85.1771ZM89.723 24.112H92.651V25H88.631V16.636H89.723V24.112Z" fill="white"/>
<path fill-rule="evenodd" clip-rule="evenodd" d="M26 27C29.866 27 33 23.866 33 20C33 16.134 29.866 13 26 13C22.134 13 19 16.134 19 20C19 23.866 22.134 27 26 27ZM26 24C28.2091 24 30 22.2091 30 20C30 17.7909 28.2091 16 26 16C23.7909 16 22 17.7909 22 20C22 22.2091 23.7909 24 26 24Z" fill="white"/>
</svg>
