<svg width="120" height="40" viewBox="0 0 120 40" fill="none" xmlns="http://www.w3.org/2000/svg">
<rect x="5" y="5" width="110" height="30" rx="15" fill="#B563CE"/>
<path d="M52.891 19.084C52.891 19.78 52.651 20.36 52.171 20.824C51.699 21.28 50.975 21.508 49.999 21.508H48.391V25H47.299V16.636H49.999C50.943 16.636 51.659 16.864 52.147 17.32C52.643 17.776 52.891 18.364 52.891 19.084ZM49.999 20.608C50.607 20.608 51.055 20.476 51.343 20.212C51.631 19.948 51.775 19.572 51.775 19.084C51.775 18.052 51.183 17.536 49.999 17.536H48.391V20.608H49.999ZM58.0402 25.084C57.2642 25.084 56.5562 24.904 55.9162 24.544C55.2762 24.176 54.7682 23.668 54.3922 23.02C54.0242 22.364 53.8402 21.628 53.8402 20.812C53.8402 19.996 54.0242 19.264 54.3922 18.616C54.7682 17.96 55.2762 17.452 55.9162 17.092C56.5562 16.724 57.2642 16.54 58.0402 16.54C58.8242 16.54 59.5362 16.724 60.1762 17.092C60.8162 17.452 61.3202 17.956 61.6882 18.604C62.0562 19.252 62.2402 19.988 62.2402 20.812C62.2402 21.636 62.0562 22.372 61.6882 23.02C61.3202 23.668 60.8162 24.176 60.1762 24.544C59.5362 24.904 58.8242 25.084 58.0402 25.084ZM58.0402 24.136C58.6242 24.136 59.1482 24 59.6122 23.728C60.0842 23.456 60.4522 23.068 60.7162 22.564C60.9882 22.06 61.1242 21.476 61.1242 20.812C61.1242 20.14 60.9882 19.556 60.7162 19.06C60.4522 18.556 60.0882 18.168 59.6242 17.896C59.1602 17.624 58.6322 17.488 58.0402 17.488C57.4482 17.488 56.9202 17.624 56.4562 17.896C55.9922 18.168 55.6242 18.556 55.3522 19.06C55.0882 19.556 54.9562 20.14 54.9562 20.812C54.9562 21.476 55.0882 22.06 55.3522 22.564C55.6242 23.068 55.9922 23.456 56.4562 23.728C56.9282 24 57.4562 24.136 58.0402 24.136ZM64.7738 16.636V25H63.6818V16.636H64.7738ZM69.2869 25.084C68.7349 25.084 68.2389 24.988 67.7989 24.796C67.3669 24.596 67.0269 24.324 66.7789 23.98C66.5309 23.628 66.4029 23.224 66.3949 22.768H67.5589C67.5989 23.16 67.7589 23.492 68.0389 23.764C68.3269 24.028 68.7429 24.16 69.2869 24.16C69.8069 24.16 70.2149 24.032 70.5109 23.776C70.8149 23.512 70.9669 23.176 70.9669 22.768C70.9669 22.448 70.8789 22.188 70.7029 21.988C70.5269 21.788 70.3069 21.636 70.0429 21.532C69.7789 21.428 69.4229 21.316 68.9749 21.196C68.4229 21.052 67.9789 20.908 67.6429 20.764C67.3149 20.62 67.0309 20.396 66.7909 20.092C66.5589 19.78 66.4429 19.364 66.4429 18.844C66.4429 18.388 66.5589 17.984 66.7909 17.632C67.0229 17.28 67.3469 17.008 67.7629 16.816C68.1869 16.624 68.6709 16.528 69.2149 16.528C69.9989 16.528 70.6389 16.724 71.1349 17.116C71.6389 17.508 71.9229 18.028 71.9869 18.676H70.7869C70.7469 18.356 70.5789 18.076 70.2829 17.836C69.9869 17.588 69.5949 17.464 69.1069 17.464C68.6509 17.464 68.2789 17.584 67.9909 17.824C67.7029 18.056 67.5589 18.384 67.5589 18.808C67.5589 19.112 67.6429 19.36 67.8109 19.552C67.9869 19.744 68.1989 19.892 68.4469 19.996C68.7029 20.092 69.0589 20.204 69.5149 20.332C70.0669 20.484 70.5109 20.636 70.8469 20.788C71.1829 20.932 71.4709 21.16 71.7109 21.472C71.9509 21.776 72.0709 22.192 72.0709 22.72C72.0709 23.128 71.9629 23.512 71.7469 23.872C71.5309 24.232 71.2109 24.524 70.7869 24.748C70.3629 24.972 69.8629 25.084 69.2869 25.084ZM77.4699 25.084C76.6939 25.084 75.9859 24.904 75.3459 24.544C74.7059 24.176 74.1979 23.668 73.8219 23.02C73.4539 22.364 73.2699 21.628 73.2699 20.812C73.2699 19.996 73.4539 19.264 73.8219 18.616C74.1979 17.96 74.7059 17.452 75.3459 17.092C75.9859 16.724 76.6939 16.54 77.4699 16.54C78.2539 16.54 78.9659 16.724 79.6059 17.092C80.2459 17.452 80.7499 17.956 81.1179 18.604C81.4859 19.252 81.6699 19.988 81.6699 20.812C81.6699 21.636 81.4859 22.372 81.1179 23.02C80.7499 23.668 80.2459 24.176 79.6059 24.544C78.9659 24.904 78.2539 25.084 77.4699 25.084ZM77.4699 24.136C78.0539 24.136 78.5779 24 79.0419 23.728C79.5139 23.456 79.8819 23.068 80.1459 22.564C80.4179 22.06 80.5539 21.476 80.5539 20.812C80.5539 20.14 80.4179 19.556 80.1459 19.06C79.8819 18.556 79.5179 18.168 79.0539 17.896C78.5899 17.624 78.0619 17.488 77.4699 17.488C76.8779 17.488 76.3499 17.624 75.8859 17.896C75.4219 18.168 75.0539 18.556 74.7819 19.06C74.5179 19.556 74.3859 20.14 74.3859 20.812C74.3859 21.476 74.5179 22.06 74.7819 22.564C75.0539 23.068 75.4219 23.456 75.8859 23.728C76.3579 24 76.8859 24.136 77.4699 24.136ZM89.6875 25H88.5955L84.2035 18.34V25H83.1115V16.624H84.2035L88.5955 23.272V16.624H89.6875V25Z" fill="white"/>
<path fill-rule="evenodd" clip-rule="evenodd" d="M23.1447 27C23.853 27 24.4742 26.4995 24.8224 25.7477C25.1706 26.4995 25.7917 27 26.5 27C27.1456 27 27.7189 26.5841 28.0789 25.9411C28.439 26.5841 29.0123 27 29.6579 27C30.7479 27 31.6316 25.8145 31.6316 24.3521C31.6316 24.064 31.5973 23.7866 31.5338 23.5268C33.0485 22.3156 34 20.5657 34 18.6196C34 14.9637 30.6421 12 26.5 12C22.3579 12 19 14.9637 19 18.6196C19 20.4955 19.884 22.189 21.3044 23.3936C21.2183 23.6908 21.1711 24.0141 21.1711 24.3521C21.1711 25.8145 22.0547 27 23.1447 27ZM26.4013 22.1117C28.8539 22.1117 30.8421 20.607 30.8421 18.7509C30.8421 16.8948 28.8539 15.3902 26.4013 15.3902C23.9487 15.3902 21.9605 16.8948 21.9605 18.7509C21.9605 20.607 23.9487 22.1117 26.4013 22.1117Z" fill="white"/>
</svg>
