<svg width="120" height="40" viewBox="0 0 120 40" fill="none" xmlns="http://www.w3.org/2000/svg">
<rect x="5" y="5" width="110" height="30" rx="15" fill="#F87C7A"/>
<path d="M49.6156 19.084C49.6156 19.78 49.3756 20.36 48.8956 20.824C48.4236 21.28 47.6996 21.508 46.7236 21.508H45.1156V25H44.0236V16.636H46.7236C47.6676 16.636 48.3836 16.864 48.8716 17.32C49.3676 17.776 49.6156 18.364 49.6156 19.084ZM46.7236 20.608C47.3316 20.608 47.7796 20.476 48.0676 20.212C48.3556 19.948 48.4996 19.572 48.4996 19.084C48.4996 18.052 47.9076 17.536 46.7236 17.536H45.1156V20.608H46.7236ZM53.6248 25.084C53.0728 25.084 52.5768 24.988 52.1368 24.796C51.7048 24.596 51.3648 24.324 51.1168 23.98C50.8688 23.628 50.7408 23.224 50.7328 22.768H51.8968C51.9368 23.16 52.0968 23.492 52.3768 23.764C52.6648 24.028 53.0808 24.16 53.6248 24.16C54.1448 24.16 54.5528 24.032 54.8488 23.776C55.1528 23.512 55.3048 23.176 55.3048 22.768C55.3048 22.448 55.2168 22.188 55.0408 21.988C54.8648 21.788 54.6448 21.636 54.3808 21.532C54.1168 21.428 53.7608 21.316 53.3128 21.196C52.7608 21.052 52.3168 20.908 51.9808 20.764C51.6528 20.62 51.3688 20.396 51.1288 20.092C50.8968 19.78 50.7808 19.364 50.7808 18.844C50.7808 18.388 50.8968 17.984 51.1288 17.632C51.3608 17.28 51.6848 17.008 52.1008 16.816C52.5248 16.624 53.0088 16.528 53.5528 16.528C54.3368 16.528 54.9768 16.724 55.4728 17.116C55.9768 17.508 56.2608 18.028 56.3248 18.676H55.1248C55.0848 18.356 54.9168 18.076 54.6208 17.836C54.3248 17.588 53.9328 17.464 53.4448 17.464C52.9888 17.464 52.6168 17.584 52.3288 17.824C52.0408 18.056 51.8968 18.384 51.8968 18.808C51.8968 19.112 51.9808 19.36 52.1488 19.552C52.3248 19.744 52.5368 19.892 52.7848 19.996C53.0408 20.092 53.3968 20.204 53.8528 20.332C54.4048 20.484 54.8488 20.636 55.1848 20.788C55.5208 20.932 55.8088 21.16 56.0488 21.472C56.2888 21.776 56.4088 22.192 56.4088 22.72C56.4088 23.128 56.3008 23.512 56.0848 23.872C55.8688 24.232 55.5488 24.524 55.1248 24.748C54.7008 24.972 54.2008 25.084 53.6248 25.084ZM63.8718 16.636L61.1478 21.844V25H60.0558V21.844L57.3198 16.636H58.5318L60.5958 20.872L62.6598 16.636H63.8718ZM64.6156 20.812C64.6156 19.996 64.7996 19.264 65.1676 18.616C65.5356 17.96 66.0356 17.448 66.6676 17.08C67.3076 16.712 68.0156 16.528 68.7916 16.528C69.7036 16.528 70.4996 16.748 71.1796 17.188C71.8596 17.628 72.3556 18.252 72.6676 19.06H71.3596C71.1276 18.556 70.7916 18.168 70.3516 17.896C69.9196 17.624 69.3996 17.488 68.7916 17.488C68.2076 17.488 67.6836 17.624 67.2196 17.896C66.7556 18.168 66.3916 18.556 66.1276 19.06C65.8636 19.556 65.7316 20.14 65.7316 20.812C65.7316 21.476 65.8636 22.06 66.1276 22.564C66.3916 23.06 66.7556 23.444 67.2196 23.716C67.6836 23.988 68.2076 24.124 68.7916 24.124C69.3996 24.124 69.9196 23.992 70.3516 23.728C70.7916 23.456 71.1276 23.068 71.3596 22.564H72.6676C72.3556 23.364 71.8596 23.984 71.1796 24.424C70.4996 24.856 69.7036 25.072 68.7916 25.072C68.0156 25.072 67.3076 24.892 66.6676 24.532C66.0356 24.164 65.5356 23.656 65.1676 23.008C64.7996 22.36 64.6156 21.628 64.6156 20.812ZM80.7371 16.636V25H79.6451V21.208H75.3851V25H74.2931V16.636H75.3851V20.308H79.6451V16.636H80.7371ZM83.6937 16.636V25H82.6017V16.636H83.6937ZM85.1469 20.812C85.1469 19.996 85.3309 19.264 85.6989 18.616C86.0669 17.96 86.5669 17.448 87.1989 17.08C87.8389 16.712 88.5469 16.528 89.3229 16.528C90.2349 16.528 91.0309 16.748 91.7109 17.188C92.3909 17.628 92.8869 18.252 93.1989 19.06H91.8909C91.6589 18.556 91.3229 18.168 90.8829 17.896C90.4509 17.624 89.9309 17.488 89.3229 17.488C88.7389 17.488 88.2149 17.624 87.7509 17.896C87.2869 18.168 86.9229 18.556 86.6589 19.06C86.3949 19.556 86.2629 20.14 86.2629 20.812C86.2629 21.476 86.3949 22.06 86.6589 22.564C86.9229 23.06 87.2869 23.444 87.7509 23.716C88.2149 23.988 88.7389 24.124 89.3229 24.124C89.9309 24.124 90.4509 23.992 90.8829 23.728C91.3229 23.456 91.6589 23.068 91.8909 22.564H93.1989C92.8869 23.364 92.3909 23.984 91.7109 24.424C91.0309 24.856 90.2349 25.072 89.3229 25.072C88.5469 25.072 87.8389 24.892 87.1989 24.532C86.5669 24.164 86.0669 23.656 85.6989 23.008C85.3309 22.36 85.1469 21.628 85.1469 20.812Z" fill="white"/>
<path fill-rule="evenodd" clip-rule="evenodd" d="M30.9745 24.6261C30.9745 24.6261 29.2092 26.042 25.6963 25.456C23.0311 25.0115 21.6096 22.0736 21.6096 20.4944C21.6096 16.7502 24.3808 15.8981 26.2543 15.8981C28.1278 15.8981 29.35 17.7247 29.35 19.1389C29.35 20.5531 28.3497 21.7901 26.7931 21.7901C25.2366 21.7901 24.7755 20.6973 24.7755 19.6926C24.7755 18.6879 25.5884 18.334 26.3297 18.334C27.071 18.334 27.3249 18.9669 27.3249 19.5108C27.3249 20.0548 26.9028 20.2496 26.5508 20.2496C26.1988 20.2496 26.1639 20.072 26.0292 19.8854C25.8945 19.6987 26.2011 18.9923 25.6963 18.9923C25.1915 18.9923 25.0974 19.8044 25.0974 19.8044C25.0974 19.8044 25.2815 21.3721 26.7931 21.3451C28.3048 21.318 29.022 20.1493 28.8136 18.9923C28.6052 17.8352 27.4822 16.6057 25.5115 16.8541C23.5407 17.1026 22.736 19.0939 23.0907 21.2219C23.4454 23.3499 25.9947 24.5829 27.9992 24.1393C30.0036 23.6957 32 22.2445 32 18.5653C32 14.8861 28.8136 12.6746 25.014 13.0391C21.2145 13.4036 18.8559 16.7254 19.0068 20.7166C19.1578 24.7078 22.945 26.8816 26.1475 26.9936C29.35 27.1057 31.3132 25.2518 31.3132 25.2518C31.3132 25.2518 31.7547 24.8581 31.5816 24.5506C31.4085 24.2432 30.9745 24.6261 30.9745 24.6261Z" fill="white"/>
</svg>
