<svg width="120" height="40" viewBox="0 0 120 40" fill="none" xmlns="http://www.w3.org/2000/svg">
<rect x="5" y="5" width="110" height="30" rx="15" fill="#CEC18C"/>
<path d="M57.2343 25L55.2423 21.58H53.9223V25H52.8303V16.636H55.5303C56.1623 16.636 56.6943 16.744 57.1263 16.96C57.5663 17.176 57.8943 17.468 58.1103 17.836C58.3263 18.204 58.4343 18.624 58.4343 19.096C58.4343 19.672 58.2663 20.18 57.9303 20.62C57.6023 21.06 57.1063 21.352 56.4423 21.496L58.5423 25H57.2343ZM53.9223 20.704H55.5303C56.1223 20.704 56.5663 20.56 56.8623 20.272C57.1583 19.976 57.3063 19.584 57.3063 19.096C57.3063 18.6 57.1583 18.216 56.8623 17.944C56.5743 17.672 56.1303 17.536 55.5303 17.536H53.9223V20.704ZM63.923 25.084C63.147 25.084 62.439 24.904 61.799 24.544C61.159 24.176 60.651 23.668 60.275 23.02C59.907 22.364 59.723 21.628 59.723 20.812C59.723 19.996 59.907 19.264 60.275 18.616C60.651 17.96 61.159 17.452 61.799 17.092C62.439 16.724 63.147 16.54 63.923 16.54C64.707 16.54 65.419 16.724 66.059 17.092C66.699 17.452 67.203 17.956 67.571 18.604C67.939 19.252 68.123 19.988 68.123 20.812C68.123 21.636 67.939 22.372 67.571 23.02C67.203 23.668 66.699 24.176 66.059 24.544C65.419 24.904 64.707 25.084 63.923 25.084ZM63.923 24.136C64.507 24.136 65.031 24 65.495 23.728C65.967 23.456 66.335 23.068 66.599 22.564C66.871 22.06 67.007 21.476 67.007 20.812C67.007 20.14 66.871 19.556 66.599 19.06C66.335 18.556 65.971 18.168 65.507 17.896C65.043 17.624 64.515 17.488 63.923 17.488C63.331 17.488 62.803 17.624 62.339 17.896C61.875 18.168 61.507 18.556 61.235 19.06C60.971 19.556 60.839 20.14 60.839 20.812C60.839 21.476 60.971 22.06 61.235 22.564C61.507 23.068 61.875 23.456 62.339 23.728C62.811 24 63.339 24.136 63.923 24.136ZM69.1566 20.812C69.1566 19.996 69.3406 19.264 69.7086 18.616C70.0766 17.96 70.5766 17.448 71.2086 17.08C71.8486 16.712 72.5566 16.528 73.3326 16.528C74.2446 16.528 75.0406 16.748 75.7206 17.188C76.4006 17.628 76.8966 18.252 77.2086 19.06H75.9006C75.6686 18.556 75.3326 18.168 74.8926 17.896C74.4606 17.624 73.9406 17.488 73.3326 17.488C72.7486 17.488 72.2246 17.624 71.7606 17.896C71.2966 18.168 70.9326 18.556 70.6686 19.06C70.4046 19.556 70.2726 20.14 70.2726 20.812C70.2726 21.476 70.4046 22.06 70.6686 22.564C70.9326 23.06 71.2966 23.444 71.7606 23.716C72.2246 23.988 72.7486 24.124 73.3326 24.124C73.9406 24.124 74.4606 23.992 74.8926 23.728C75.3326 23.456 75.6686 23.068 75.9006 22.564H77.2086C76.8966 23.364 76.4006 23.984 75.7206 24.424C75.0406 24.856 74.2446 25.072 73.3326 25.072C72.5566 25.072 71.8486 24.892 71.2086 24.532C70.5766 24.164 70.0766 23.656 69.7086 23.008C69.3406 22.36 69.1566 21.628 69.1566 20.812ZM83.3702 25L79.9262 21.184V25H78.8342V16.636H79.9262V20.512L83.3822 16.636H84.7622L80.9702 20.824L84.7982 25H83.3702Z" fill="white"/>
<path fill-rule="evenodd" clip-rule="evenodd" d="M29.8536 20.2658C29.8242 20.2258 29.8124 20.1757 29.8208 20.1268L30.674 15.1518C30.689 15.0641 30.7661 15 30.8551 15C30.9348 15 31.0062 15.0517 31.0302 15.1276L32.9618 21.2435C32.9848 21.3162 32.9601 21.3956 32.9 21.4425L31.661 22.4099C31.5799 22.4732 31.4624 22.457 31.4014 22.374L29.8536 20.2658ZM19 23.5214C19 23.6004 19.0508 23.6704 19.1259 23.695L21.9716 24.6254C22.0258 24.6432 22.0852 24.6345 22.1322 24.6021L28.818 19.9864C28.8596 19.9577 28.8874 19.913 28.8949 19.863L29.5847 15.2347C29.6011 15.1243 29.5156 15.0251 29.404 15.0251H23.6513C23.5969 15.0251 23.5454 15.0493 23.5107 15.0912L19.042 20.4819C19.0149 20.5147 19 20.5559 19 20.5985V23.5214ZM23.3271 24.907L26.5755 25.9712C26.6309 25.9893 26.6915 25.9799 26.7389 25.946L30.4951 23.2516C30.5753 23.1941 30.5953 23.0833 30.5402 23.0013L29.2482 21.0787C29.1916 20.9945 29.0772 20.9725 28.9935 21.0298L23.3271 24.907Z" fill="white"/>
</svg>
