<svg width="120" height="40" viewBox="0 0 120 40" fill="none" xmlns="http://www.w3.org/2000/svg">
<rect x="5" y="5" width="110" height="30" rx="15" fill="#5596A4"/>
<path d="M56.5662 25.084C56.0142 25.084 55.5182 24.988 55.0782 24.796C54.6462 24.596 54.3062 24.324 54.0582 23.98C53.8102 23.628 53.6822 23.224 53.6742 22.768H54.8382C54.8782 23.16 55.0382 23.492 55.3182 23.764C55.6062 24.028 56.0222 24.16 56.5662 24.16C57.0862 24.16 57.4942 24.032 57.7902 23.776C58.0942 23.512 58.2462 23.176 58.2462 22.768C58.2462 22.448 58.1582 22.188 57.9822 21.988C57.8062 21.788 57.5862 21.636 57.3222 21.532C57.0582 21.428 56.7022 21.316 56.2542 21.196C55.7022 21.052 55.2582 20.908 54.9222 20.764C54.5942 20.62 54.3102 20.396 54.0702 20.092C53.8382 19.78 53.7222 19.364 53.7222 18.844C53.7222 18.388 53.8382 17.984 54.0702 17.632C54.3022 17.28 54.6262 17.008 55.0422 16.816C55.4662 16.624 55.9502 16.528 56.4942 16.528C57.2782 16.528 57.9182 16.724 58.4142 17.116C58.9182 17.508 59.2022 18.028 59.2662 18.676H58.0662C58.0262 18.356 57.8582 18.076 57.5622 17.836C57.2662 17.588 56.8742 17.464 56.3862 17.464C55.9302 17.464 55.5582 17.584 55.2702 17.824C54.9822 18.056 54.8382 18.384 54.8382 18.808C54.8382 19.112 54.9222 19.36 55.0902 19.552C55.2662 19.744 55.4782 19.892 55.7262 19.996C55.9822 20.092 56.3382 20.204 56.7942 20.332C57.3462 20.484 57.7902 20.636 58.1262 20.788C58.4622 20.932 58.7502 21.16 58.9902 21.472C59.2302 21.776 59.3502 22.192 59.3502 22.72C59.3502 23.128 59.2422 23.512 59.0262 23.872C58.8102 24.232 58.4902 24.524 58.0662 24.748C57.6422 24.972 57.1422 25.084 56.5662 25.084ZM66.1052 16.636V17.524H63.8252V25H62.7332V17.524H60.4412V16.636H66.1052ZM68.5414 17.524V20.32H71.5894V21.22H68.5414V24.1H71.9494V25H67.4494V16.624H71.9494V17.524H68.5414ZM74.6937 17.524V20.32H77.7417V21.22H74.6937V24.1H78.1017V25H73.6017V16.624H78.1017V17.524H74.6937ZM80.8461 24.112H83.7741V25H79.7541V16.636H80.8461V24.112Z" fill="white"/>
<path fill-rule="evenodd" clip-rule="evenodd" d="M19.0511 19.6919C18.983 19.5756 18.983 19.4317 19.051 19.3154L22.6395 13.1843C22.7063 13.0702 22.8287 13 22.961 13H30.0772C30.2101 13 30.333 13.0708 30.3996 13.1859L33.9487 19.3169C34.0155 19.4324 34.0155 19.5749 33.9486 19.6903L30.3996 25.8143C30.333 25.9292 30.2102 26 30.0773 26H22.9608C22.8286 26 22.7063 25.9299 22.6394 25.8158L19.0511 19.6919ZM26.5 23C28.433 23 30 21.433 30 19.5C30 17.567 28.433 16 26.5 16C24.567 16 23 17.567 23 19.5C23 21.433 24.567 23 26.5 23Z" fill="white"/>
</svg>
