<svg width="120" height="40" viewBox="0 0 120 40" fill="none" xmlns="http://www.w3.org/2000/svg">
<rect x="5" y="5" width="110" height="30" rx="15" fill="#559EDF"/>
<path d="M60.0669 16.636L57.6429 25H56.4189L54.4749 18.268L52.4589 25L51.2469 25.012L48.9069 16.636H50.0709L51.8949 23.728L53.9109 16.636H55.1349L57.0549 23.704L58.8909 16.636H60.0669ZM66.2059 23.14H62.5579L61.8859 25H60.7339L63.7579 16.684H65.0179L68.0299 25H66.8779L66.2059 23.14ZM65.8939 22.252L64.3819 18.028L62.8699 22.252H65.8939ZM74.4958 16.636V17.524H72.2158V25H71.1238V17.524H68.8318V16.636H74.4958ZM76.932 17.524V20.32H79.98V21.22H76.932V24.1H80.34V25H75.84V16.624H80.34V17.524H76.932ZM86.3964 25L84.4044 21.58H83.0844V25H81.9924V16.636H84.6924C85.3244 16.636 85.8564 16.744 86.2884 16.96C86.7284 17.176 87.0564 17.468 87.2724 17.836C87.4884 18.204 87.5964 18.624 87.5964 19.096C87.5964 19.672 87.4284 20.18 87.0924 20.62C86.7644 21.06 86.2684 21.352 85.6044 21.496L87.7044 25H86.3964ZM83.0844 20.704H84.6924C85.2844 20.704 85.7284 20.56 86.0244 20.272C86.3204 19.976 86.4684 19.584 86.4684 19.096C86.4684 18.6 86.3204 18.216 86.0244 17.944C85.7364 17.672 85.2924 17.536 84.6924 17.536H83.0844V20.704Z" fill="white"/>
<path fill-rule="evenodd" clip-rule="evenodd" d="M24 27C26.7614 27 29 23.5474 29 19.2884C29 15.0294 26.7614 11.5768 24 11.5768C21.2386 11.5768 19 15.0294 19 19.2884C19 23.5474 21.2386 27 24 27ZM23.1665 25.4031C20.6293 24.8479 21.0634 22.0373 21.0634 22.0373C21.0634 22.0373 21.7563 23.734 23.4376 24.2835C25.1189 24.8331 27.1507 24.0271 27.1507 24.0271C27.1507 24.0271 25.7037 25.9582 23.1665 25.4031Z" fill="white"/>
</svg>
